HIERARCHY
ROOT Hips
{
  OFFSET -187.679 86.5976 -156.378
  CHANNELS 6 Xposition Yposition Zposition Zrotation Xrotation Yrotation
  JOINT LeftUpLeg
  {
    OFFSET 8.64259 1.95398 -2.38835
    CHANNELS 3 Zrotation Xrotation Yrotation
    JOINT LeftLeg
    {
      OFFSET 43.7702 0 0
      CHANNELS 3 Zrotation Xrotation Yrotation
      JOINT LeftFoot
      {
        OFFSET 40.6238 0 0
        CHANNELS 3 Zrotation Xrotation Yrotation
        JOINT LeftToeBase
        {
          OFFSET 12.7242 0 0
          CHANNELS 3 Zrotation Xrotation Yrotation
          End Site
          {
            OFFSET 0 0 0
          }
        }
      }
    }
  }
  JOINT RightUpLeg
  {
    OFFSET -8.2249 1.95398 -2.59336
    CHANNELS 3 Zrotation Xrotation Yrotation
    JOINT RightLeg
    {
      OFFSET 43.5653 0 0
      CHANNELS 3 Zrotation Xrotation Yrotation
      JOINT RightFoot
      {
        OFFSET 40.6238 0 0
        CHANNELS 3 Zrotation Xrotation Yrotation
        JOINT RightToeBase
        {
          OFFSET 12.7242 0 0
          CHANNELS 3 Zrotation Xrotation Yrotation
          End Site
          {
            OFFSET 0 0 0
          }
        }
      }
    }
  }
  JOINT Spine
  {
    OFFSET 0.165834 0.87714 6.61349
    CHANNELS 3 Zrotation Xrotation Yrotation
    JOINT Spine1
    {
      OFFSET 7.38963 1.71661e-005 0
      CHANNELS 3 Zrotation Xrotation Yrotation
      JOINT Spine2
      {
        OFFSET 11.9445 1.14441e-005 0
        CHANNELS 3 Zrotation Xrotation Yrotation
        JOINT Spine3
        {
          OFFSET 14.7254 4.19617e-005 0
          CHANNELS 3 Zrotation Xrotation Yrotation
          JOINT Spine4
          {
            OFFSET 10.9679 0 0
            CHANNELS 3 Zrotation Xrotation Yrotation
            JOINT RightShoulder
            {
              OFFSET 2.46616 -1.6653 3.69651
              CHANNELS 3 Zrotation Xrotation Yrotation
              JOINT RightArm
              {
                OFFSET 13.0012 0 0
                CHANNELS 3 Zrotation Xrotation Yrotation
                JOINT RightForeArm
                {
                  OFFSET 28.7848 1.52588e-005 0
                  CHANNELS 3 Zrotation Xrotation Yrotation
                  JOINT RightHand
                  {
                    OFFSET 26.5688 1.52588e-005 0
                    CHANNELS 3 Zrotation Xrotation Yrotation
                    End Site
                    {
                      OFFSET 0 0 0
                    }
                  }
                }
              }
            }
            JOINT LeftShoulder
            {
              OFFSET 2.38034 -1.29275 -3.7523
              CHANNELS 3 Zrotation Xrotation Yrotation
              JOINT LeftArm
              {
                OFFSET 16.3182 6.10352e-005 0
                CHANNELS 3 Zrotation Xrotation Yrotation
                JOINT LeftForeArm
                {
                  OFFSET 27.0901 0 0
                  CHANNELS 3 Zrotation Xrotation Yrotation
                  JOINT LeftHand
                  {
                    OFFSET 24.5451 1.52588e-005 0
                    CHANNELS 3 Zrotation Xrotation Yrotation
                    End Site
                    {
                      OFFSET 0 0 0
                    }
                  }
                }
              }
            }
            JOINT Neck
            {
              OFFSET 5.0226 -0.0266342 0
              CHANNELS 3 Zrotation Xrotation Yrotation
              JOINT Head
              {
                OFFSET 6.69363 2.86102e-005 0
                CHANNELS 3 Zrotation Xrotation Yrotation
                End Site
                {
                  OFFSET 0 0 0
                }
              }
            }
          }
        }
      }
    }
  }
}
MOTION
Frames:	11
Frame Time:	0.0416667
25.0067 100.086 22.817 -101.798 -47.1637 -104.293 -176.297 -0.0971339 81.7812 -26.5623 11.9347 6.08564 75.8224 5.72463 -1.55264 9.69965 -10.2757 4.51037 158.548 7.81224 68.997 -25.3385 14.1234 5.53355 60.1508 -2.15344 2.55681 33.0924 0.853861 -0.823152 1.25367 7.72225 -89.4886 11.4223 2.73321 0.742249 -0.245888 2.76325 0.621136 -22.7979 2.38373 1.52973 -2.78525 2.38375 1.52974 84.6066 -49.1812 -109.064 28.3275 -15.5183 -9.15345 -18.7892 -18.921 -17.7849 -14.7479 -0.526867 -0.871468 -89.2435 -50.1904 80.1231 -27.3677 8.33413 5.44325 9.589 -10.7157 -8.53199 -2.89095 -0.0992511 -1.42753 -1.75774 26.0693 15.6578 20.7403 21.825 -9.54128 
25.1613 100.104 22.8918 -102.196 -48.4307 -105.07 -176.158 -0.0948978 81.6828 -26.5691 13.5884 5.77466 75.6952 6.07613 -1.16126 10.8493 -9.89202 4.84603 158.075 7.69466 68.3854 -25.3674 14.946 5.78151 59.9935 -2.13251 2.80665 33.4921 0.951413 -0.992726 1.29461 7.73858 -89.4246 11.3877 2.84447 0.859756 -0.280293 2.87956 0.733637 -22.8329 2.45452 1.67528 -2.82026 2.45453 1.67527 84.4466 -49.3824 -109.24 28.4318 -16.6109 -9.20257 -18.8568 -19.0351 -18.4898 -13.2384 -0.42037 -1.33989 -89.3908 -50.3983 79.946 -25.8867 8.29914 4.3673 9.19949 -12.3687 -9.53274 -2.81036 -0.101948 -1.4198 -2.31495 25.282 15.027 20.2637 21.2668 -9.42963 
25.4492 100.22 22.7697 -102.716 -48.8779 -105.416 -176.238 -0.167088 81.6763 -26.5161 14.0101 5.89157 75.2483 6.06329 -0.920184 10.7426 -9.71762 4.43342 158.297 6.93233 68.5243 -24.5986 15.7197 5.6698 59.6874 -2.03995 2.62019 33.4238 0.945067 -1.00561 1.29898 7.78246 -89.4389 11.3004 2.84637 0.833971 -0.367577 2.88031 0.70779 -22.9205 2.4641 1.65126 -2.90781 2.4641 1.65126 84.6844 -49.2652 -108.919 28.4203 -16.6535 -10.0291 -19.5242 -20.5109 -19.2846 -13.4346 -0.495293 -0.744407 -89.6164 -50.4112 79.6133 -25.0021 8.57145 2.04387 9.59503 -10.1233 -12.403 -2.47528 -0.101272 -1.65062 -2.35974 24.9752 14.5963 20.2646 21.0926 -9.03177 
25.6788 100.227 22.6303 -103.052 -48.3757 -105.621 -176.087 -0.266647 81.7354 -26.8464 13.7735 5.62157 76.0337 6.04173 -2.19708 10.0968 -11.8349 7.64363 158.627 6.90798 68.5776 -24.7283 15.5357 5.45008 59.8423 -2.07605 2.81935 32.9659 1.03287 -1.62808 1.21878 7.85876 -89.4483 11.1479 2.6822 0.836665 -0.520469 2.71642 0.717718 -23.0709 2.3067 1.60441 -3.05826 2.30672 1.6044 84.5827 -49.1763 -109.103 27.9149 -16.6005 -10.9901 -20.2418 -20.671 -20.5924 -13.6273 -0.587848 0.0172693 -89.52 -50.3233 79.7384 -24.317 9.42549 -1.1 10.2006 -7.23559 -14.5615 -2.82392 -0.0989832 -1.70692 -1.87354 24.5546 14.5967 20.1875 20.5716 -9.21972 
25.8871 100.169 22.4116 -102.231 -46.3903 -104.848 -176.334 -0.0781303 81.3591 -26.3044 10.8411 5.60454 75.4781 5.50138 -1.97456 11.0534 -9.84845 4.95189 159.126 8.46952 68.766 -25.8302 13.5862 5.20441 60.1507 -2.07745 2.74376 32.3067 0.931039 -1.57724 1.24114 7.87741 -89.4842 11.1116 2.71001 0.763789 -0.556728 2.74101 0.643688 -23.1082 2.35515 1.54331 -3.09556 2.35514 1.54329 85.6847 -48.5658 -107.621 28.3326 -16.5463 -11.4253 -21.212 -20.0663 -22.7384 -13.472 -0.4782 -0.898951 -90.0164 -50.7205 79.0854 -23.3547 10.9135 -3.72967 10.2177 -6.84116 -15.7516 -2.9952 -0.0967806 -2.34096 -0.168145 21.3325 13.4397 18.5754 17.5218 -8.63251 
25.6745 100.255 22.0303 -101.786 -43.504 -103.5 -175.93 -0.632034 82.228 -25.7289 9.12307 5.28141 75.946 5.46072 -2.40745 11.5 -11.1877 7.81515 160.294 8.5812 70.0897 -25.7579 11.9821 4.74833 60.0849 -1.96428 2.56324 31.775 0.839391 -1.50109 1.16538 7.9667 -89.4984 10.9333 2.5523 0.756312 -0.735286 2.58312 0.643169 -23.2846 2.20698 1.4887 -3.27196 2.20697 1.4887 84.1897 -49.5585 -109.569 26.4698 -16.9894 -11.9189 -20.7954 -18.6139 -22.5153 -12.9374 -0.423053 -1.22604 -90.8853 -51.0479 77.8758 -22.4197 7.98858 -5.56507 11.5115 -4.19643 -15.8137 -2.75463 -0.0916357 -2.40337 1.4466 13.7627 9.67416 18.4211 10.9155 -5.74119 
24.96 100.529 21.48 -101.036 -39.992 -101.435 -175.731 -1.3997 83.4634 -24.3794 5.776 5.57396 75.389 4.8691 -2.73294 12.2081 -10.6085 7.4428 161.762 7.99246 72.2073 -24.5192 10.3152 4.39625 59.4883 -1.64536 2.33034 31.0296 0.618098 -1.02919 1.01448 7.96938 -89.5188 10.9286 2.24236 0.745033 -0.740615 2.27299 0.645569 -23.2861 1.91479 1.38468 -3.27347 1.91475 1.38468 83.5261 -50.1936 -110.349 25.9184 -16.9695 -12.0562 -20.2582 -18.8946 -21.4011 -13.7402 -0.427178 -1.43052 -90.2397 -49.6583 78.5222 -22.9721 10.0663 -4.54195 10.7622 -5.61732 -16.5759 -1.57306 -0.0726065 -1.80639 3.13127 2.79562 3.30634 16.6968 1.83996 -1.92362 
24.0265 100.847 20.5928 -99.7989 -35.8791 -98.8754 -175.511 -2.25562 84.8985 -22.0376 2.81846 5.86766 74.4112 4.75424 -1.48581 13.069 -10.1835 7.47729 162.789 8.54444 75.175 -25.24 14.2097 5.73174 59.8431 -1.46557 0.623543 28.2523 -0.530086 1.5107 0.838117 7.94808 -89.5622 10.9724 1.8715 0.692875 -0.697369 1.90018 0.609805 -23.2392 1.57674 1.22339 -3.22657 1.57673 1.22339 82.7847 -50.7811 -111.247 25.292 -16.5511 -11.3558 -20.1133 -18.936 -20.9431 -13.9662 -0.457732 -1.2224 -90.3135 -49.2836 78.3284 -23.8476 10.2564 -3.17276 11.1286 -4.35358 -15.692 -3.45876 -0.0940058 -3.00849 3.61042 -9.14359 -3.31539 15.8623 -8.21871 0.832562 
22.6244 101.326 19.3598 -98.3086 -31.1386 -95.5469 -175.189 -2.82623 87.3409 -19.9564 -3.43447 6.54975 74.0861 3.58212 -4.83399 13.2588 -10.4565 8.19551 163.1 8.13149 79.6939 -27.3843 29.8771 10.6112 60.7794 -1.58974 1.05764 25.5622 -1.099 1.89787 0.713981 7.91962 -89.7066 11.0322 1.55728 0.434404 -0.63785 1.5749 0.365417 -23.1784 1.35473 0.882415 -3.16578 1.35475 0.882413 83.7215 -50.5099 -109.95 25.5984 -16.6319 -10.9428 -19.6475 -18.6065 -20.208 -13.9103 -0.413709 -1.58511 -90.1916 -48.9601 78.4393 -24.8815 12.6814 -2.49573 10.0192 -6.8222 -13.5294 -4.04757 -0.106366 -2.84522 3.8555 -20.1604 -10.6346 15.426 -17.1717 4.65625 
20.6037 101.666 18.027 -98.0935 -24.9965 -93.9275 -174.591 -6.19116 88.8831 -15.4698 -8.42357 6.85816 71.8844 3.47849 -4.28059 15.069 -9.40979 8.01062 165.78 5.67162 82.803 -26.2105 34.5724 12.4413 62.2369 -1.57878 1.55285 22.8548 -0.810657 -0.33079 0.636605 7.95371 -89.7392 10.9644 1.38819 0.387029 -0.705823 1.40392 0.32553 -23.2453 1.20768 0.786394 -3.23263 1.2077 0.786385 83.2837 -50.8089 -110.498 25.6173 -16.3315 -9.95512 -19.578 -18.7006 -19.7877 -12.3475 -0.285861 -2.38075 -90.2135 -48.134 78.2198 -25.962 14.2635 -1.30572 9.52539 -7.28517 -12.2141 -3.78948 -0.10376 -3.04766 1.5134 -27.279 -16.782 17.6507 -23.1326 6.71514 
18.0808 101.523 16.5423 -97.8435 -17.1507 -92.3288 -173.681 -9.64289 90.2513 -12.0481 -15.3443 6.69283 70.859 3.55975 -5.2837 18.1734 -9.3438 11.1977 169.045 4.5131 85.7808 -24.3618 29.4257 9.93244 63.5415 -1.41522 1.0487 23.0487 -1.07484 0.53688 0.554746 7.93946 -89.7921 10.994 1.2007 0.298743 -0.676386 1.21269 0.245592 -23.2149 1.05539 0.645824 -3.20229 1.05541 0.645822 83.4235 -50.7732 -110.302 25.0364 -17.6562 -9.98104 -19.5585 -20.054 -19.8288 -11.7498 -0.254348 -2.57048 -90.4579 -47.5869 77.721 -27.2133 13.7009 0.468465 9.45533 -7.91427 -12.1015 -3.82607 -0.106503 -2.63093 0.979576 -29.631 -19.3233 18.7828 -24.8979 8.10287 
